<svg version="1.2" xmlns="http://www.w3.org/2000/svg" viewBox="0 0 96 96" width="96" height="96">
	<style>
		.s0 { fill: #ff5d01 } 
	</style>
	<path fill-rule="evenodd" class="s0" d="m27.81 10.51q0.12-0.57 0.3-1.14 0.17-0.56 0.39-1.11 0.23-0.54 0.5-1.06 0.27-0.53 0.59-1.02 0.23-0.29 0.5-0.54 0.26-0.25 0.56-0.47 0.29-0.21 0.61-0.39 0.32-0.17 0.66-0.31 0.57-0.16 1.15-0.26 0.58-0.1 1.17-0.16 0.59-0.05 1.17-0.05 0.59 0 1.18 0.05h19.67q0.59-0.05 1.18-0.05 0.59 0 1.18 0.05 0.58 0.05 1.16 0.15 0.58 0.11 1.15 0.26 0.34 0.14 0.66 0.31 0.32 0.18 0.62 0.39 0.29 0.22 0.56 0.47 0.26 0.25 0.49 0.53 0.32 0.5 0.6 1.02 0.27 0.52 0.5 1.07 0.22 0.54 0.4 1.11 0.18 0.56 0.3 1.13l15.11 47.56q0.45 1.04 0.79 2.13 0.35 1.08 0.59 2.19 0.25 1.1 0.39 2.23 0.15 1.13 0.19 2.26-0.05 0.7-0.2 1.38-0.14 0.68-0.38 1.34-0.23 0.66-0.54 1.29-0.32 0.62-0.71 1.2-0.75 0.86-1.57 1.64-0.82 0.79-1.7 1.49-0.89 0.71-1.84 1.34-0.95 0.62-1.95 1.16l-17.28 11.38q-0.79 0.63-1.63 1.18-0.85 0.56-1.73 1.05-0.89 0.48-1.81 0.89-0.93 0.42-1.88 0.75-0.62 0.15-1.24 0.22-0.63 0.07-1.26 0.07-0.63 0-1.26-0.07-0.63-0.07-1.24-0.22-0.95-0.34-1.87-0.75-0.91-0.42-1.79-0.91-0.88-0.49-1.72-1.05-0.84-0.56-1.62-1.18l-17.1-11.38q-0.99-0.54-1.92-1.16-0.94-0.62-1.82-1.33-0.88-0.7-1.69-1.48-0.81-0.79-1.54-1.64-0.39-0.57-0.71-1.19-0.31-0.62-0.54-1.28-0.24-0.65-0.38-1.33-0.15-0.68-0.21-1.37 0.04-1.13 0.18-2.25 0.14-1.11 0.38-2.21 0.24-1.1 0.58-2.18 0.33-1.07 0.77-2.11c0 0 14.9-47.64 14.9-47.64zm28.83 3.2q-0.22-0.21-0.47-0.39-0.24-0.18-0.51-0.33-0.27-0.15-0.55-0.27-0.48-0.13-0.96-0.21-0.49-0.09-0.98-0.13-0.5-0.04-0.99-0.04-0.5 0-0.99 0.05h-9.31q-0.49-0.05-0.99-0.05-0.49 0-0.98 0.04-0.5 0.04-0.98 0.13-0.49 0.08-0.97 0.21-0.28 0.12-0.54 0.27-0.27 0.14-0.52 0.33-0.24 0.18-0.46 0.39-0.22 0.21-0.42 0.44-0.26 0.42-0.49 0.86-0.22 0.44-0.41 0.9-0.18 0.46-0.33 0.93-0.14 0.48-0.24 0.96l-13.03 42.62q1.84-0.96 3.74-1.76 1.9-0.81 3.85-1.47 1.96-0.67 3.96-1.17 2-0.51 4.03-0.87l8.34-28.52q0.02-0.09 0.06-0.16 0.04-0.08 0.09-0.16 0.05-0.07 0.11-0.13 0.06-0.06 0.13-0.11 0.22-0.16 0.48-0.21 0.27-0.04 0.52 0.04 0.26 0.09 0.45 0.28 0.18 0.19 0.26 0.45l8.43 28.53q2.03 0.36 4.02 0.87 1.99 0.5 3.94 1.16 1.95 0.66 3.84 1.46 1.89 0.81 3.71 1.76l-12.97-42.62q-0.1-0.48-0.24-0.95-0.15-0.48-0.33-0.94-0.19-0.45-0.41-0.89-0.23-0.44-0.49-0.86-0.17-0.22-0.4-0.44zm-22.08 47.43q-0.15 0.5-0.26 1.02-0.11 0.51-0.19 1.03-0.07 0.53-0.1 1.05-0.04 0.53-0.03 1.06-0.03 1.2 0.17 2.4 0.19 1.19 0.62 2.32 0.42 1.14 1.05 2.17 0.63 1.03 1.45 1.92 0-0.17 0.02-0.33 0.02-0.17 0.05-0.33 0.03-0.17 0.08-0.33 0.05-0.16 0.11-0.31 0.13-0.31 0.32-0.59 0.18-0.28 0.42-0.51 0.24-0.24 0.52-0.43 0.27-0.18 0.58-0.31 0.16-0.06 0.32-0.11 0.16-0.05 0.32-0.08 0.17-0.03 0.33-0.05 0.17-0.02 0.34-0.02c3.2 0 3.2 2.81 3.2 5.08v0.21q0 1.23 0.36 2.4 0.36 1.18 1.04 2.21 0.68 1.02 1.63 1.8 0.96 0.78 2.09 1.25-0.17-0.35-0.3-0.72-0.13-0.38-0.22-0.76-0.09-0.38-0.13-0.78-0.05-0.39-0.05-0.78c0-3.29 1.94-4.53 4.18-5.96q0.8-0.42 1.54-0.96 0.73-0.53 1.38-1.15 0.66-0.63 1.22-1.34 0.56-0.71 1.02-1.49 0.45-0.82 0.72-1.73 0.28-0.9 0.37-1.83 0.09-0.94-0.01-1.88-0.1-0.93-0.39-1.83-1.24 0.83-2.61 1.45-1.36 0.62-2.81 1.01-1.44 0.39-2.93 0.55-1.49 0.15-2.98 0.07c-6.04 0.01-11.11-1.87-12.44-4.39z"/>
</svg>