<?xml version="1.0" encoding="UTF-8"?>
<svg version="1.1" xmlns="http://www.w3.org/2000/svg" width="96" height="96">
<path d="M0 0 C8.80288754 6.34043826 15.4186507 14.72648904 17.58203125 25.4921875 C18.92007691 37.90936834 17.85729499 48.88109459 10.39453125 59.2421875 C3.58210875 67.3274193 -4.72289951 73.55522767 -15.48876953 74.71533203 C-28.40007937 75.61089799 -39.16843729 74.04490094 -49.3515625 65.46484375 C-57.86959925 57.33325857 -62.42046403 48.68416257 -62.88867188 36.85693359 C-63.04371176 24.34263074 -60.22647828 14.71931927 -51.41796875 5.4921875 C-37.63784493 -7.66275112 -16.31305228 -10.17259803 0 0 Z " fill="#414141" transform="translate(70.41796875,13.5078125)"/>
<path d="M0 0 C6.39534884 0.69767442 6.39534884 0.69767442 9 2 C12.95323436 2.2426423 16.91515333 2.18520044 20.875 2.1875 C21.97714844 2.19974609 23.07929687 2.21199219 24.21484375 2.22460938 C25.27574219 2.22654297 26.33664063 2.22847656 27.4296875 2.23046875 C28.40147949 2.23457764 29.37327148 2.23868652 30.37451172 2.24291992 C33.0933301 1.99136475 34.63556427 1.29577676 37 0 C39.6875 -0.1875 39.6875 -0.1875 42 0 C42.495 0.495 42.495 0.495 43 1 C42.99092333 3.49154587 42.86715229 5.96876171 42.7421875 8.45703125 C42.78080724 11.065773 42.78080724 11.065773 44.484375 12.92578125 C47.56311668 17.13921381 46.45310167 23.0158816 46 28 C44.39826981 32.80519056 42.19350109 35.20433261 38 38 C34.5679417 39.67417478 32.92096167 40 29 40 C29.3196875 40.49242187 29.639375 40.98484375 29.96875 41.4921875 C31.65638506 45.59620912 31.43456081 49.95010917 31.56640625 54.33203125 C31.59482544 58.62683503 31.59482544 58.62683503 34 62 C29.64022997 63.22771614 25.50107569 63.18390489 21 63.1875 C20.19304688 63.19974609 19.38609375 63.21199219 18.5546875 63.22460938 C17.38292969 63.22750977 17.38292969 63.22750977 16.1875 63.23046875 C15.47980469 63.23457764 14.77210937 63.23868652 14.04296875 63.24291992 C11.68164933 62.9621464 10.05607177 62.16578114 8 61 C8.99 60.505 8.99 60.505 10 60 C10.46523063 58.10466658 10.46523063 58.10466658 10.625 55.9375 C10.74875 54.638125 10.8725 53.33875 11 52 C9.783125 52.0825 8.56625 52.165 7.3125 52.25 C4.13672569 52.23879797 3.08437727 52.0498593 0.25 50.375 C-2.22852973 47.75877417 -4.10927048 45.06428577 -6 42 C-6.66 41.01 -7.32 40.02 -8 39 C-5.8125 38.625 -5.8125 38.625 -3 39 C-0.375 41.875 -0.375 41.875 2 45 C5.22791555 47.1519437 6.28400809 47.20086443 10 47 C10.99 44.69 11.98 42.38 13 40 C11.824375 39.95875 10.64875 39.9175 9.4375 39.875 C4.43404067 39.25290026 1.16313001 36.86414801 -2 33 C-4.0214272 29.07762801 -4.27014439 25.75640543 -4.25 21.375 C-4.25515625 20.24835937 -4.2603125 19.12171875 -4.265625 17.9609375 C-4 15 -4 15 -2 12 C-1.57922598 9.29404578 -1.57922598 9.29404578 -1.4375 6.375 C-1.09817672 1.09817672 -1.09817672 1.09817672 0 0 Z " fill="#FCFCFC" transform="translate(27,25)"/>
<path d="M0 0 C2.1875 -0.375 2.1875 -0.375 5 0 C7.08832653 1.82869674 8.38336791 3.69052559 10 6 C10 6.66 10 7.32 10 8 C9.34 8 8.68 8 8 8 C8 7.34 8 6.68 8 6 C7.01 6.33 6.02 6.66 5 7 C3.35 4.69 1.7 2.38 0 0 Z " fill="#DDDDDD" transform="translate(19,64)"/>
</svg>
